<svg xmlns="http://www.w3.org/2000/svg" width="200.823" height="31.942" viewBox="0 0 200.823 31.942">
  <g id="Group_168" data-name="Group 168" transform="translate(-423 131.959)">
    <rect id="Rectangle_173" data-name="Rectangle 173" width="4.044" height="4.044" transform="translate(619.779 -111.366)" fill="#f75d43"/>
    <path id="Path_231" data-name="Path 231" d="M24.929,31.942H0V8.058A8.067,8.067,0,0,1,8.06,0H32.178V24.693ZM2.139,29.8H24.044l5.994-6V2.137H8.06A5.928,5.928,0,0,0,2.139,8.058Z" transform="translate(423 -131.959)"/>
    <path id="Path_232" data-name="Path 232" d="M7.424,7.357H4.247A3.177,3.177,0,0,1,7.424,4.18Z" transform="translate(426.175 -128.834)"/>
    <rect id="Rectangle_174" data-name="Rectangle 174" width="3.177" height="3.177" transform="translate(437.5 -124.654)"/>
    <rect id="Rectangle_175" data-name="Rectangle 175" width="3.177" height="3.177" transform="translate(444.578 -124.654)"/>
    <rect id="Rectangle_176" data-name="Rectangle 176" width="3.177" height="3.177" transform="translate(430.422 -117.576)"/>
    <rect id="Rectangle_177" data-name="Rectangle 177" width="3.177" height="3.177" transform="translate(437.5 -117.576)"/>
    <rect id="Rectangle_178" data-name="Rectangle 178" width="3.177" height="3.177" transform="translate(444.578 -117.576)"/>
    <rect id="Rectangle_179" data-name="Rectangle 179" width="3.177" height="3.177" transform="translate(430.422 -110.5)"/>
    <rect id="Rectangle_180" data-name="Rectangle 180" width="3.177" height="3.177" transform="translate(437.5 -110.5)"/>
    <path id="Path_233" data-name="Path 233" d="M12.347,15.457V12.279h3.177Z" transform="translate(432.231 -122.778)"/>
    <g id="Group_357" data-name="Group 357" transform="translate(781.753 157.532)">
      <path id="Path_415" data-name="Path 415" d="M30.383,16.166V7.995a.885.885,0,0,0-.2-.7,1.379,1.379,0,0,0-1.024-.544c-.544,0-1,.435-2.4,1.306v8.107H24.129V4.944h2.287l.153,1.22a3.858,3.858,0,0,1,2.942-1.547,3.417,3.417,0,0,1,2.964,1.72A4.073,4.073,0,0,1,35.7,4.617a3.577,3.577,0,0,1,3.575,3.792v7.758h-2.66V7.995a.885.885,0,0,0-.2-.7,1.376,1.376,0,0,0-1.024-.544c-.544,0-1,.435-2.4,1.306v8.107Z" transform="translate(-339.701 -282.813)"/>
      <path id="Path_416" data-name="Path 416" d="M34.479,11.481V9.629a5.134,5.134,0,0,1,10.265,0v1.852a5.134,5.134,0,0,1-10.265,0m7.28,1.788a1.556,1.556,0,0,0,.284-1.069V8.888a1.5,1.5,0,0,0-.284-1.046,2.658,2.658,0,0,0-4.293,0,1.4,1.4,0,0,0-.284,1.046V12.2a1.453,1.453,0,0,0,.284,1.069,2.658,2.658,0,0,0,4.293,0" transform="translate(-332.982 -282.813)"/>
      <path id="Path_417" data-name="Path 417" d="M41.868,13.753V10.4a4.087,4.087,0,0,1,4.184-4.271,4.13,4.13,0,0,1,3.117,1.415V2.291h2.637V17.676H49.474l-.13-1.263A4.2,4.2,0,0,1,45.922,18a4.092,4.092,0,0,1-4.054-4.25m7.3-4.031c-1.961-1.242-2.157-1.46-2.921-1.46a1.786,1.786,0,0,0-1.5.937,1.441,1.441,0,0,0-.218.828v4.141a1.4,1.4,0,0,0,.132.74,2.045,2.045,0,0,0,1.765.958c.566,0,.894-.261,2.746-1.372Z" transform="translate(-328.185 -284.323)"/>
      <path id="Path_418" data-name="Path 418" d="M58.7,4.815V16.038H56.387L56.214,14.8a4.232,4.232,0,0,1-3.2,1.568,3.732,3.732,0,0,1-3.749-3.856V4.815H51.9v7.933a1.179,1.179,0,0,0,.153.7,1.711,1.711,0,0,0,1.351.806c.458,0,.74-.35,2.659-1.461V4.815Z" transform="translate(-323.386 -282.684)"/>
      <rect id="Rectangle_406" data-name="Rectangle 406" width="2.637" height="15.385" transform="translate(-262.376 -282.032)"/>
      <path id="Path_419" data-name="Path 419" d="M59.121,12.9a3.479,3.479,0,0,1,.872-2.353C61.257,9.172,63.044,9.236,66.117,9v-.74a1.1,1.1,0,0,0-.175-.719,1.917,1.917,0,0,0-1.656-.785c-.589,0-.828.087-3.749,1.7l-1.176-1.11a5.453,5.453,0,0,1,8.411-1.286,3.665,3.665,0,0,1,.96,2.985v7.126H66.4l-.153-1.22a4.368,4.368,0,0,1-3.335,1.547,3.519,3.519,0,0,1-3.792-3.6m7-1.961L63.5,11.2a2.034,2.034,0,0,0-1.634.74,1.52,1.52,0,0,0-.087.544v.458a1.7,1.7,0,0,0,.087.719,1.8,1.8,0,0,0,1.57.7c.478,0,.915-.282,2.68-1.285Z" transform="translate(-316.985 -282.813)"/>
      <path id="Path_420" data-name="Path 420" d="M66.237,4.944h2.311L68.7,6.23a3.485,3.485,0,0,1,2.833-1.613,2.956,2.956,0,0,1,2.724,1.808l-1.09,1.222c-1.46-.764-1.46-.828-1.852-.828-.48,0-.632.218-2.441,1.394v7.954H66.237Z" transform="translate(-312.365 -282.813)"/>
      <path id="Path_421" data-name="Path 421" d="M81.62,12.7l1.2,1.178a5.2,5.2,0,0,1-4.511,2.614,5.093,5.093,0,0,1-5.122-5.012V9.629a5.122,5.122,0,0,1,5.122-5.012,5.232,5.232,0,0,1,4.511,2.659L81.577,8.539C79.049,6.992,78.9,6.753,78.308,6.753a2.726,2.726,0,0,0-2.136,1.088,1.4,1.4,0,0,0-.284,1.047v3.333a1.456,1.456,0,0,0,.284,1.069,2.7,2.7,0,0,0,2.136,1.067c.587,0,.783-.2,3.312-1.656" transform="translate(-307.854 -282.813)"/>
      <rect id="Rectangle_407" data-name="Rectangle 407" width="2.637" height="14.962" transform="translate(-223.651 -281.608)"/>
      <path id="Path_422" data-name="Path 422" d="M82.623,11.481V9.629a5.134,5.134,0,0,1,10.265,0v1.852a5.134,5.134,0,0,1-10.265,0m7.28,1.788a1.556,1.556,0,0,0,.284-1.069V8.888A1.5,1.5,0,0,0,89.9,7.843a2.658,2.658,0,0,0-4.293,0,1.4,1.4,0,0,0-.284,1.046V12.2a1.453,1.453,0,0,0,.284,1.069,2.658,2.658,0,0,0,4.293,0" transform="translate(-301.727 -282.813)"/>
      <path id="Path_423" data-name="Path 423" d="M96.691,9.672c2.2.369,2.7,1.5,2.7,2.921,0,2.245-2.311,3.9-4.969,3.9a5.455,5.455,0,0,1-4.817-2.746l1.243-1.2c2.462,1.438,3.094,1.809,3.574,1.809a3.116,3.116,0,0,0,2.114-.676.819.819,0,0,0,.3-.7v-.327c0-.414-.173-.544-.871-.675l-3.29-.589c-2.311-.414-2.724-1.483-2.724-2.9,0-2.245,2.223-3.879,4.794-3.879a4.911,4.911,0,0,1,4.337,2.55l-1.2,1.178C95.6,6.992,95.3,6.752,94.752,6.752a3,3,0,0,0-2.048.655.816.816,0,0,0-.305.7v.327c0,.393.175.544.849.653Z" transform="translate(-297.193 -282.813)"/>
      <path id="Path_424" data-name="Path 424" d="M105,12.7l1.133,1.156a5.152,5.152,0,0,1-4.512,2.637A5.093,5.093,0,0,1,96.5,11.481V9.629a5.137,5.137,0,0,1,5.121-5.012,4.966,4.966,0,0,1,4.969,4.816v2.005h-7.41v.828a1.456,1.456,0,0,0,.284,1.069,2.665,2.665,0,0,0,2.136,1.024c.61,0,1.046-.262,3.4-1.657m-.96-3.813a1.5,1.5,0,0,0-.284-1.046,2.658,2.658,0,0,0-4.293,0,1.4,1.4,0,0,0-.284,1.046V9.52h4.86Z" transform="translate(-292.719 -282.813)"/>
      <path id="Path_425" data-name="Path 425" d="M110.895,15.075c-1,.493-1.219.625-1.473.625a1.756,1.756,0,0,1-1.372-.764,1.1,1.1,0,0,1-.2-.7V8.4h4.039l.828-2.113h-4.867V2.548h-2.637V6.287h-2.245V8.4h2.245v5.362a3.99,3.99,0,0,0,4.184,4.075,4.273,4.273,0,0,0,2.878-1.072Z" transform="translate(-288.517 -284.156)"/>
      <path id="Path_426" data-name="Path 426" d="M116.048,9.672c2.2.369,2.7,1.5,2.7,2.921,0,2.245-2.311,3.9-4.969,3.9a5.455,5.455,0,0,1-4.817-2.746l1.244-1.2c2.462,1.438,3.094,1.809,3.574,1.809a3.116,3.116,0,0,0,2.114-.676.819.819,0,0,0,.3-.7v-.327c0-.414-.173-.544-.871-.675l-3.29-.589c-2.311-.414-2.724-1.483-2.724-2.9,0-2.245,2.223-3.879,4.794-3.879a4.911,4.911,0,0,1,4.337,2.55l-1.2,1.178c-2.289-1.351-2.594-1.591-3.138-1.591a3,3,0,0,0-2.048.655.816.816,0,0,0-.305.7v.327c0,.393.175.544.849.653Z" transform="translate(-284.626 -282.813)"/>
    </g>
  </g>
</svg>
